<svg viewBox="0 0 800 500" xmlns="http://www.w3.org/2000/svg">
  <!-- Nền bản đồ -->
  <rect x="0" y="0" width="800" height="500" fill="#f0f8ff"/>
  
  <!-- Phần đất liền -->
  <path d="M 0 0 L 800 0 L 800 500 L 0 500 Z" fill="#e9edc9"/>
  
  <!-- Phần biển (Vịnh Bắc Bộ) -->
  <path d="M 600 150 C 650 200, 670 250, 700 280 C 730 310, 760 350, 800 370 L 800 0 L 600 0 Z" fill="#bde0fe"/>
  
  <!-- Biên giới quốc gia -->
  <path d="M 0 100 C 50 80, 100 90, 150 70 C 200 50, 250 60, 300 40 C 350 20, 400 30, 450 10 L 450 0 L 0 0 Z" fill="#d8d8d8" opacity="0.5"/>
  <path d="M 0 100 C 50 80, 100 90, 150 70 C 200 50, 250 60, 300 40 C 350 20, 400 30, 450 10" fill="none" stroke="#888888" stroke-width="2" stroke-dasharray="10,5"/>
  
  <!-- Sông ngòi -->
  <path d="M 430 0 C 400 50, 410 100, 390 150 C 370 200, 350 250, 330 300 C 310 350, 300 400, 280 450 L 250 500" fill="none" stroke="#90e0ef" stroke-width="8"/>
  <path d="M 600 150 C 550 170, 520 200, 480 230 C 440 260, 410 300, 390 350 C 370 400, 350 450, 320 500" fill="none" stroke="#90e0ef" stroke-width="10"/>
  <path d="M 180 0 C 160 50, 150 100, 130 150 C 110 200, 100 250, 90 300 C 80 350, 70 400, 50 450 L 30 500" fill="none" stroke="#90e0ef" stroke-width="6"/>
  
  <!-- Các thành phố -->
  <circle cx="200" cy="100" r="5" fill="#333333"/>
  <text x="210" y="100" font-family="Arial" font-size="12">Lào Cai</text>
  
  <circle cx="300" cy="150" r="8" fill="#333333"/>
  <text x="310" y="154" font-family="Arial" font-size="14" font-weight="bold">Hà Nội</text>
  
  <circle cx="250" cy="200" r="5" fill="#333333"/>
  <text x="260" y="200" font-family="Arial" font-size="12">Nam Định</text>
  
  <circle cx="150" cy="250" r="5" fill="#333333"/>
  <text x="160" y="250" font-family="Arial" font-size="12">Thanh Hóa</text>
  
  <circle cx="120" cy="300" r="5" fill="#333333"/>
  <text x="130" y="300" font-family="Arial" font-size="12">Vinh</text>
  
  <circle cx="200" cy="380" r="5" fill="#333333"/>
  <text x="210" y="380" font-family="Arial" font-size="12">Đà Nẵng</text>
  
  <circle cx="480" cy="100" r="5" fill="#333333"/>
  <text x="490" y="100" font-family="Arial" font-size="12">Cao Bằng</text>
  
  <circle cx="520" cy="180" r="5" fill="#333333"/>
  <text x="530" y="180" font-family="Arial" font-size="12">Lạng Sơn</text>
  
  <circle cx="600" cy="250" r="5" fill="#333333"/>
  <text x="610" y="250" font-family="Arial" font-size="12">Quảng Ninh</text>
  
  <circle cx="650" cy="300" r="5" fill="#333333"/>
  <text x="660" y="300" font-family="Arial" font-size="12">Hải Phòng</text>
  
  <!-- Vùng nguy cơ cao -->
  <circle cx="300" cy="150" r="80" fill="#e63946" opacity="0.3"/>
  <circle cx="300" cy="150" r="50" fill="#e63946" opacity="0.5"/>
  <circle cx="300" cy="150" r="25" fill="#e63946" opacity="0.7"/>
  
  <!-- Vùng nguy cơ trung bình -->
  <circle cx="200" cy="100" r="40" fill="#f9c74f" opacity="0.4"/>
  <circle cx="520" cy="180" r="45" fill="#f9c74f" opacity="0.4"/>
  <circle cx="120" cy="300" r="35" fill="#f9c74f" opacity="0.4"/>
  
  <!-- Vùng nguy cơ thấp -->
  <circle cx="600" cy="250" r="30" fill="#90be6d" opacity="0.4"/>
  <circle cx="250" cy="200" r="25" fill="#90be6d" opacity="0.4"/>
  <circle cx="480" cy="100" r="30" fill="#90be6d" opacity="0.4"/>
  
  <!-- Các trận động đất lịch sử -->
  <g id="eq1">
    <circle cx="195" cy="105" r="5" fill="none" stroke="#e63946" stroke-width="2"/>
    <circle cx="195" cy="105" r="10" fill="none" stroke="#e63946" stroke-width="1"/>
    <text x="195" y="125" text-anchor="middle" font-family="Arial" font-size="9">5.6R, 15.2km</text>
    <text x="195" y="135" text-anchor="middle" font-family="Arial" font-size="9">07/12/2024</text>
  </g>
  
  <g id="eq2">
    <circle cx="155" cy="245" r="4" fill="none" stroke="#e63946" stroke-width="2"/>
    <circle cx="155" cy="245" r="8" fill="none" stroke="#e63946" stroke-width="1"/>
    <text x="155" y="265" text-anchor="middle" font-family="Arial" font-size="9">4.8R, 8.5km</text>
    <text x="155" y="275" text-anchor="middle" font-family="Arial" font-size="9">15/01/2025</text>
  </g>
  
  <g id="eq3">
    <circle cx="525" cy="185" r="4" fill="none" stroke="#e63946" stroke-width="2"/>
    <circle cx="525" cy="185" r="8" fill="none" stroke="#e63946" stroke-width="1"/>
    <text x="525" y="205" text-anchor="middle" font-family="Arial" font-size="9">5.2R, 12.1km</text>
    <text x="525" y="215" text-anchor="middle" font-family="Arial" font-size="9">23/02/2025</text>
  </g>
  
  <g id="eq4">
    <circle cx="305" cy="145" r="3" fill="none" stroke="#e63946" stroke-width="2"/>
    <circle cx="305" cy="145" r="6" fill="none" stroke="#e63946" stroke-width="1"/>
    <text x="305" y="165" text-anchor="middle" font-family="Arial" font-size="9">3.8R, 7.3km</text>
    <text x="305" y="175" text-anchor="middle" font-family="Arial" font-size="9">18/11/2024</text>
  </g>
  
  <g id="eq5">
    <circle cx="480" cy="110" r="4" fill="none" stroke="#e63946" stroke-width="2"/>
    <circle cx="480" cy="110" r="8" fill="none" stroke="#e63946" stroke-width="1"/>
    <text x="480" y="130" text-anchor="middle" font-family="Arial" font-size="9">4.2R, 9.8km</text>
    <text x="480" y="140" text-anchor="middle" font-family="Arial" font-size="9">05/10/2024</text>
  </g>
  
  <!-- Dự báo động đất tiếp theo -->
  <g id="prediction">
    <circle cx="300" cy="150" r="15" fill="#e63946" opacity="0.7"/>
    <circle cx="300" cy="150" r="25" fill="none" stroke="#e63946" stroke-width="3" stroke-dasharray="5,3"/>
    <path d="M 290 150 L 310 150 M 300 140 L 300 160" stroke="white" stroke-width="2"/>
    <text x="320" y="185" font-family="Arial" font-size="12" font-weight="bold" fill="#e63946">Dự báo động đất tiếp theo</text>
    <text x="320" y="200" font-family="Arial" font-size="11">Cường độ: 6.5 Richter</text>
    <text x="320" y="215" font-family="Arial" font-size="11">Độ sâu: 10.5 km</text>
    <text x="320" y="230" font-family="Arial" font-size="11">Thời gian: 14:30:22 26/04/2025</text>
    <text x="320" y="245" font-family="Arial" font-size="11">Độ tin cậy: 89%</text>
  </g>
  
  <!-- Vùng ảnh hưởng dự báo -->
  <circle cx="300" cy="150" r="100" fill="none" stroke="#e63946" stroke-width="2" stroke-dasharray="15,5"/>
  
  <!-- Các đới đứt gãy kiến tạo -->
  <path d="M 100 50 C 150 100, 200 130, 250 150 C 300 170, 350 160, 400 170 C 450 180, 500 200, 550 220 C 600 240, 650 270, 700 300" fill="none" stroke="#ff006e" stroke-width="2" stroke-dasharray="8,4"/>
  <text x="250" y="50" font-family="Arial" font-size="10" fill="#ff006e" transform="rotate(-15, 250, 50)">Đới đứt gãy Sông Hồng</text>
  
  <path d="M 200 300 C 250 250, 270 200, 300 150 C 330 100, 380 80, 450 60" fill="none" stroke="#ff006e" stroke-width="2" stroke-dasharray="8,4"/>
  <text x="350" y="80" font-family="Arial" font-size="10" fill="#ff006e" transform="rotate(-15, 350, 80)">Đới đứt gãy Sông Chảy</text>
  
  <path d="M 80 350 C 120 330, 150 310, 180 280 C 210 250, 240 220, 270 190 C 300 160, 340 140, 380 120" fill="none" stroke="#ff006e" stroke-width="2" stroke-dasharray="8,4"/>
  <text x="120" y="330" font-family="Arial" font-size="10" fill="#ff006e" transform="rotate(-35, 120, 330)">Đới đứt gãy Sông Mã</text>
  
  <!-- Các đường đẳng cấp cường độ dự báo -->
  <circle cx="300" cy="150" r="150" fill="none" stroke="#e63946" stroke-width="1" stroke-dasharray="5,3"/>
  <circle cx="300" cy="150" r="120" fill="none" stroke="#e63946" stroke-width="1" stroke-dasharray="5,3"/>
  <circle cx="300" cy="150" r="80" fill="none" stroke="#e63946" stroke-width="1" stroke-dasharray="5,3"/>
  <circle cx="300" cy="150" r="50" fill="none" stroke="#e63946" stroke-width="1" stroke-dasharray="5,3"/>
  
  <!-- Chú thích -->
  <g transform="translate(600, 60)">
    <rect x="0" y="0" width="180" height="150" fill="white" rx="5" ry="5" opacity="0.9"/>
    <text x="10" y="20" font-family="Arial" font-size="12" font-weight="bold">Chú thích</text>
    
    <circle cx="20" cy="40" r="7" fill="#e63946" opacity="0.7"/>
    <text x="35" y="44" font-family="Arial" font-size="11">Vùng nguy cơ cao</text>
    
    <circle cx="20" cy="65" r="7" fill="#f9c74f" opacity="0.7"/>
    <text x="35" y="69" font-family="Arial" font-size="11">Vùng nguy cơ trung bình</text>
    
    <circle cx="20" cy="90" r="7" fill="#90be6d" opacity="0.7"/>
    <text x="35" y="94" font-family="Arial" font-size="11">Vùng nguy cơ thấp</text>
    
    <g transform="translate(20, 110)">
      <circle cx="0" cy="0" r="5" fill="none" stroke="#e63946" stroke-width="2"/>
      <circle cx="0" cy="0" r="10" fill="none" stroke="#e63946" stroke-width="1"/>
    </g>
    <text x="35" y="114" font-family="Arial" font-size="11">Động đất lịch sử</text>
    
    <path d="M 10 135 L 30 135" stroke="#ff006e" stroke-width="2" stroke-dasharray="4,2"/>
    <text x="35" y="139" font-family="Arial" font-size="11">Đới đứt gãy kiến tạo</text>
  </g>
  
  <!-- Thông tin bổ sung -->
  <g transform="translate(20, 20)">
    <rect x="0" y="0" width="220" height="60" fill="white" rx="5" ry="5" opacity="0.9"/>
    <text x="10" y="20" font-family="Arial" font-size="14" font-weight="bold">Bản đồ dự báo động đất</text>
    <text x="10" y="40" font-family="Arial" font-size="12">Dựa trên phân tích dữ liệu lịch sử</text>
    <text x="10" y="55" font-family="Arial" font-size="12">Độ tin cậy dự báo: 89%</text>
  </g>
  
  <!-- La bàn -->
  <g transform="translate(740, 420)">
    <circle cx="0" cy="0" r="30" fill="white" stroke="#333" stroke-width="1"/>
    <path d="M 0 -25 L 0 -15" stroke="#333" stroke-width="1.5"/>
    <path d="M 0 25 L 0 15" stroke="#333" stroke-width="1.5"/>
    <path d="M -25 0 L -15 0" stroke="#333" stroke-width="1.5"/>
    <path d="M 25 0 L 15 0" stroke="#333" stroke-width="1.5"/>
    <text x="0" y="-18" text-anchor="middle" font-family="Arial" font-size="10" font-weight="bold">B</text>
    <text x="0" y="22" text-anchor="middle" font-family="Arial" font-size="10" font-weight="bold">N</text>
    <text x="-20" y="3" text-anchor="middle" font-family="Arial" font-size="10" font-weight="bold">T</text>
    <text x="20" y="3" text-anchor="middle" font-family="Arial" font-size="10" font-weight="bold">Đ</text>
    <path d="M 0 0 L 0 -12" stroke="#e63946" stroke-width="1.5"/>
    <path d="M 0 0 L 8 8" stroke="#333" stroke-width="1.5"/>
    <circle cx="0" cy="0" r="3" fill="#333"/>
  </g>
  
  <!-- Tỷ lệ bản đồ -->
  <g transform="translate(50, 450)">
    <rect x="0" y="0" width="100" height="20" fill="white" rx="3" ry="3" opacity="0.8"/>
    <line x1="10" y1="10" x2="90" y2="10" stroke="#333" stroke-width="2"/>
    <line x1="10" y1="7" x2="10" y2="13" stroke="#333" stroke-width="2"/>
    <line x1="50" y1="7" x2="50" y2="13" stroke="#333" stroke-width="2"/>
    <line x1="90" y1="7" x2="90" y2="13" stroke="#333" stroke-width="2"/>
    <text x="10" y="25" text-anchor="middle" font-family="Arial" font-size="9">0</text>
    <text x="50" y="25" text-anchor="middle" font-family="Arial" font-size="9">50km</text>
    <text x="90" y="25" text-anchor="middle" font-family="Arial" font-size="9">100km</text>
  </g>
</svg>